<?xml version="1.0" encoding="utf-8"?>
<!-- Generator: Adobe Illustrator 15.1.0, SVG Export Plug-In . SVG Version: 6.00 Build 0)  -->
<!DOCTYPE svg PUBLIC "-//W3C//DTD SVG 1.1//EN" "http://www.w3.org/Graphics/SVG/1.1/DTD/svg11.dtd">
<svg version="1.1" id="レイヤー_1" xmlns="http://www.w3.org/2000/svg" xmlns:xlink="http://www.w3.org/1999/xlink" x="0px"
	 y="0px" width="150px" height="27px" viewBox="0 0 150 27" enable-background="new 0 0 150 27" xml:space="preserve">
<g>
	<path fill="#FFFFFF" d="M14.945,15.337c-1.608,0.176-3.896,0.301-6.006,0.301c-0.075,0.88-0.151,1.86-0.151,2.338
		c0,4.021,2.664,4.348,5.001,4.348c3.946,0,5.906-1.131,5.906-3.443c0-1.307-0.704-2.94-2.061-4.624
		c0.478-0.15,1.207-0.427,1.608-0.628c1.533,1.986,2.312,3.896,2.312,5.529c0,4.223-4.725,4.851-7.766,4.851
		c-2.413,0-6.735-0.176-6.735-6.031c0-1.131,0.101-1.961,0.151-2.388c-2.111-0.075-5.504-0.201-5.504-2.79
		c0-1.131,0.653-2.187,2.136-3.242l1.332,0.779c-1.106,0.679-1.759,1.508-1.759,2.187c0,1.332,2.01,1.382,3.92,1.432
		c0.176-1.684,0.402-3.669,0.628-5.629c-1.81-0.201-3.896-0.704-5.278-1.382l0.453-1.634C4.516,5.962,6.274,6.44,8.159,6.667
		C8.36,5.083,8.536,3.475,8.712,2.143l2.614,0.327c-0.076,0.302-0.352,0.478-0.804,0.503c-0.176,1.055-0.377,2.438-0.578,3.87
		c0.729,0.05,1.508,0.075,2.312,0.075c0.955,0,1.935-0.025,2.84-0.101L15.02,8.476c-0.754,0.05-1.608,0.076-2.462,0.076
		c-0.98,0-1.96-0.025-2.84-0.076c-0.251,1.885-0.478,3.82-0.654,5.529c1.985,0,4.197-0.126,5.856-0.352L14.945,15.337z"/>
	<path fill="#FFFFFF" d="M35.832,15.688c0.854-0.428,1.684-0.578,2.488-0.578c1.282,0,2.211,0.98,2.211,2.563
		c0,0.653-0.075,1.433-0.075,2.035c0,2.563,1.508,2.563,3.669,2.563c1.106,0,2.363-0.075,3.267-0.226
		c0,1.131,0.076,1.784,0.076,1.784c-0.98,0.101-2.161,0.15-3.267,0.15c-1.03,0-1.96-0.05-2.614-0.15
		c-1.81-0.276-2.84-1.608-2.865-3.091c0-0.578,0.05-1.709,0.05-2.463c0-1.056-0.402-1.659-1.282-1.659
		c-1.207,0-3.066,0.704-4.499,2.086c-1.458,1.433-4.197,4.197-5.051,5.202c0,0-0.277-0.352-1.357-1.332
		c2.388-2.438,10.279-10.103,12.842-12.591c-1.834,0.176-7.54,0.503-10.404,0.654c-0.076,0.15-0.201,0.251-0.402,0.276l-0.151-2.011
		c3.519-0.101,10.128-0.427,12.667-0.653l0.377-0.226l1.458,1.332c-0.151,0.125-0.327,0.176-0.603,0.201
		c-1.583,1.483-4.675,4.323-6.534,6.107V15.688z M42.14,5.636c-2.689-0.779-7.414-1.533-10.756-1.684l0.377-1.684
		c3.468,0.15,7.992,0.829,10.856,1.658L42.14,5.636z"/>
	<path fill="#FFFFFF" d="M60.187,2.293c-0.075,0.201-0.327,0.402-0.779,0.427c-0.176,1.106-0.402,2.413-0.628,3.393
		c2.463-0.151,5.202-0.578,7.389-1.231l0.276,1.709c-2.337,0.578-5.102,0.98-7.992,1.207c-1.207,4.825-2.865,8.746-5.328,12.365
		l-1.684-0.679c2.287-3.292,4.021-7.062,5.102-11.636h-5.001V6.214h2.991c0.779,0,1.583-0.025,2.312-0.025
		c0.302-1.332,0.528-2.765,0.704-4.248L60.187,2.293z M66.872,13c0.025,2.036,0.176,3.417,0.327,5.152
		c1.609,0.628,3.694,1.709,5.353,2.915l-0.904,1.608c-1.383-1.056-3.092-2.035-4.449-2.639c0,2.513-1.005,4.474-4.7,4.474
		c-2.79,0-4.925-1.257-4.9-3.619c0-2.514,2.639-3.72,4.951-3.72c0.905,0,1.835,0.176,2.84,0.452
		c-0.101-1.608-0.226-3.241-0.226-4.423L66.872,13z M65.49,19.282c-1.03-0.402-2.086-0.578-2.991-0.578
		c-1.508,0-3.292,0.604-3.317,2.161c0,1.433,1.407,2.111,3.367,2.111c1.81,0,2.966-0.88,2.966-2.538
		C65.515,20.036,65.515,19.659,65.49,19.282z M72.376,10.411c-2.84,0.025-6.283,0.478-8.896,1.231l-0.276-1.583
		c2.865-0.83,6.333-1.357,9.072-1.357L72.376,10.411z"/>
	<path fill="#FFFFFF" d="M79.867,4.958c-0.05,0.226-0.326,0.377-0.679,0.402c-0.301,1.885-0.477,4.146-0.477,6.258
		c0,0.93,0.05,1.834,0.1,2.639c0.302,4.272,2.036,6.861,3.971,6.836c1.006,0,2.313-2.563,3.217-5.378
		c0.353,0.352,1.031,0.829,1.458,1.08c-1.156,3.393-2.613,6.157-4.699,6.208c-3.192,0.05-5.403-3.82-5.755-8.646
		c-0.076-0.955-0.101-2.011-0.101-3.142c0-2.211,0.125-4.624,0.377-6.76L79.867,4.958z M96.529,16.644
		c-0.703-4.398-2.94-7.564-6.333-9.45l1.105-1.357c3.67,1.96,6.358,5.579,7.088,10.229L96.529,16.644z"/>
	<path fill="#FFFFFF" d="M120.658,22.373c-2.212,0.402-5.152,0.578-7.716,0.578c-2.061,0-3.87-0.126-4.85-0.326
		c-3.041-0.679-4.348-2.589-4.348-4.801c0-1.885,1.055-3.845,2.563-5.353l1.458,0.754c-1.407,1.433-2.212,3.066-2.212,4.448
		c0,1.482,0.98,2.789,3.142,3.292c0.854,0.176,2.313,0.276,4.021,0.276c2.438,0,5.403-0.201,7.815-0.679L120.658,22.373z
		 M109.374,9.707c1.307-1.03,3.091-2.236,4.448-2.915V6.767c-1.91,0.227-6.283,0.302-9.072,0.302c0-0.478,0-1.307-0.025-1.759h1.357
		c3.217,0,9.801-0.05,12.968-0.804l0.201,1.834c-0.83,0.126-1.433,0.251-2.639,0.754c-1.408,0.578-3.846,1.935-5.806,3.518
		L109.374,9.707z M120.633,13.276c-0.729-1.106-2.287-2.614-3.367-3.418l0.829-0.779c1.206,0.879,2.664,2.337,3.443,3.393
		L120.633,13.276z M123.271,10.888c-0.703-1.005-2.187-2.513-3.367-3.393l0.829-0.804c1.231,0.93,2.689,2.362,3.443,3.418
		L123.271,10.888z"/>
	<path fill="#FFFFFF" d="M146.771,8.828c-0.075,0.276-0.352,0.452-0.729,0.452c-0.276,1.734-0.679,3.569-1.105,5.126
		c1.356,0.578,2.789,1.231,4.222,1.961l-0.804,1.684c-1.357-0.679-2.664-1.332-3.946-1.885c-1.206,3.619-2.94,6.258-5.604,8.017
		c-0.353-0.352-0.98-0.779-1.433-1.056c2.639-1.733,4.272-4.096,5.428-7.689c-2.538-1.006-4.85-1.709-6.71-1.86
		c-1.733,6.333-3.292,7.992-6.308,7.992s-3.594-2.413-3.594-3.946c0-3.895,4.046-5.704,8.545-5.729
		c0.527-2.01,1.005-4.473,1.356-7.087c-1.181,0.101-5.202,0.377-7.111,0.502c-0.101,0.176-0.302,0.302-0.528,0.352l-0.227-2.036
		c2.162-0.076,6.836-0.377,8.344-0.528c0.276-0.025,0.377-0.151,0.553-0.276l1.559,0.93c-0.126,0.201-0.327,0.302-0.628,0.402
		c-0.402,2.79-1.006,5.68-1.559,7.841c1.936,0.151,4.247,0.829,6.761,1.784c0.427-1.508,0.804-3.443,1.08-5.479L146.771,8.828z
		 M134.332,13.477c-3.619,0.05-6.509,1.483-6.509,4.146c0,1.408,0.679,2.362,1.859,2.362
		C131.518,19.985,132.724,19.357,134.332,13.477z"/>
</g>
</svg>
